<?xml version="1.0" encoding="UTF-8" standalone="no"?>
<svg
   xmlns:dc="http://purl.org/dc/elements/1.1/"
   xmlns:cc="http://creativecommons.org/ns#"
   xmlns:rdf="http://www.w3.org/1999/02/22-rdf-syntax-ns#"
   xmlns:svg="http://www.w3.org/2000/svg"
   xmlns="http://www.w3.org/2000/svg"
   xmlns:sodipodi="http://sodipodi.sourceforge.net/DTD/sodipodi-0.dtd"
   xmlns:inkscape="http://www.inkscape.org/namespaces/inkscape"
   width="210mm"
   height="297mm"
   viewBox="0 0 210 297"
   version="1.1"
   id="svg8"
   inkscape:version="1.0 (4035a4fb49, 2020-05-01)"
   sodipodi:docname="iconsButtons.svg">
  <defs
     id="defs2" />
  <sodipodi:namedview
     id="base"
     pagecolor="#ffffff"
     bordercolor="#666666"
     borderopacity="1.0"
     inkscape:pageopacity="0.0"
     inkscape:pageshadow="2"
     inkscape:zoom="0.7"
     inkscape:cx="417.6462"
     inkscape:cy="149.17474"
     inkscape:document-units="mm"
     inkscape:current-layer="layer1"
     inkscape:document-rotation="0"
     showgrid="false"
     inkscape:window-width="1265"
     inkscape:window-height="988"
     inkscape:window-x="0"
     inkscape:window-y="5"
     inkscape:window-maximized="0" />
  <metadata
     id="metadata5">
    <rdf:RDF>
      <cc:Work
         rdf:about="">
        <dc:format>image/svg+xml</dc:format>
        <dc:type
           rdf:resource="http://purl.org/dc/dcmitype/StillImage" />
        <dc:title />
      </cc:Work>
    </rdf:RDF>
  </metadata>
  <g
     inkscape:label="Layer 1"
     inkscape:groupmode="layer"
     id="layer1">
    <g
       inkscape:export-ydpi="400"
       inkscape:export-xdpi="400"
       id="g929">
      <g
         transform="matrix(0.68992401,0,0,0.68992401,0.95613723,-57.487273)"
         id="g881">
        <g
           transform="translate(-5.1755076,2.5877538)"
           id="g917">
          <path
             sodipodi:nodetypes="csssscsscsssc"
             id="path54"
             d="m 115.3909,168.4228 0.0473,-24.75744 c 0.002,-1.2811 1.36473,-2.78758 2.64583,-2.78758 h 5.90588 c 1.2744,0 2.92931,1.18245 2.92931,2.45685 v 3.07105 l 25.5134,-0.0945 c 1.30402,-0.005 3.04762,0.73665 3.1183,2.36236 v 1.63002 l -30.83097,-0.12674 c -0.52659,-0.002 -1.62605,0.14999 -3.15017,1.32541 -0.70574,0.54428 -1.62461,1.33419 -1.99461,2.60044 z"
             style="fill:#000000;stroke:#000000;stroke-width:0.264583px;stroke-linecap:butt;stroke-linejoin:miter;stroke-opacity:1" />
          <rect
             transform="matrix(1,0,-0.27419658,0.96167366,0,0)"
             rx="2.7298918"
             ry="3.3381937"
             y="157.31967"
             x="164.62207"
             height="24.403412"
             width="39.981461"
             id="rect52"
             style="opacity:1;fill:#000000;fill-rule:evenodd;stroke:#ffffff;stroke-width:3.81765;stroke-linecap:round;stroke-linejoin:round;stroke-miterlimit:4;stroke-dasharray:none;stroke-dashoffset:8.32854;paint-order:stroke fill markers;stop-color:#000000" />
        </g>
      </g>
    </g>
    <g
       inkscape:export-ydpi="400"
       inkscape:export-xdpi="400"
       id="g923">
      <g
         transform="matrix(0.8227644,0,0,0.8227644,-27.866819,-78.532645)"
         id="g905">
        <path
           style="fill:#000000;stroke-width:0.0680711"
           d="m 83.688291,172.61308 c -1.085735,-0.40655 -2.00271,-0.75058 -2.037723,-0.7645 -0.03501,-0.0139 0.171752,-0.68254 0.45948,-1.48583 0.287727,-0.80329 0.52314,-1.49174 0.52314,-1.52988 0,-0.0382 -0.145502,-0.17851 -0.323337,-0.31192 -0.177836,-0.1334 -0.614342,-0.51713 -0.970014,-0.85272 l -0.646676,-0.61017 -1.463529,0.62938 c -0.804942,0.34616 -1.486398,0.63145 -1.514348,0.63398 -0.05012,0.005 -1.95728,-3.75635 -1.95728,-3.85971 0,-0.0293 0.675817,-0.34144 1.501815,-0.69365 1.379906,-0.5884 1.498793,-0.65242 1.464574,-0.78877 -0.09831,-0.39169 -0.172905,-1.15181 -0.174124,-1.77431 l -0.0013,-0.68831 -1.480547,-0.52658 c -0.814301,-0.28962 -1.500499,-0.54657 -1.524884,-0.571 -0.03888,-0.0389 1.383099,-3.78837 1.469526,-3.8748 0.01839,-0.0184 0.686011,0.20031 1.4836,0.48599 0.797588,0.28569 1.481372,0.51943 1.519521,0.51943 0.03815,0 0.178508,-0.1455 0.311912,-0.32334 0.133403,-0.17783 0.517665,-0.61434 0.853915,-0.97001 l 0.611363,-0.64668 -0.746067,-1.38326 c -0.423252,-0.78475 -0.720173,-1.40836 -0.686224,-1.44125 0.108535,-0.10517 3.78529,-1.70063 3.840489,-1.66651 0.0297,0.0183 0.38236,0.64856 0.783681,1.40046 0.704322,1.31959 0.735856,1.36557 0.907625,1.3235 0.368619,-0.0903 1.617656,-0.11765 2.011803,-0.0441 0.264099,0.0493 0.418761,0.0522 0.445882,0.008 0.02284,-0.0369 0.269724,-0.71075 0.548637,-1.49734 0.278913,-0.78658 0.537747,-1.43037 0.575186,-1.43064 0.172101,-10e-4 4.049303,1.47218 4.049739,1.53897 2.72e-4,0.0416 -0.229247,0.71108 -0.51004,1.48782 -0.280794,0.77673 -0.510534,1.43525 -0.510534,1.46337 0,0.0281 0.183246,0.16423 0.407214,0.30247 0.423439,0.26136 1.078964,0.86276 1.366403,1.25358 l 0.166411,0.22627 1.293351,-0.55507 c 0.711344,-0.30529 1.393468,-0.59723 1.515832,-0.64876 l 0.222481,-0.0937 0.98128,1.96165 0.981278,1.96166 -1.169724,0.49895 c -0.643348,0.27442 -1.327659,0.56801 -1.520691,0.65243 l -0.350968,0.1535 0.07021,0.29299 c 0.03862,0.16115 0.08934,0.74817 0.112718,1.30449 l 0.04251,1.0115 1.484657,0.52988 c 0.816561,0.29144 1.498664,0.5439 1.515785,0.56102 0.01712,0.0171 -0.309789,0.90565 -0.726465,1.9745 l -0.757594,1.94338 -0.741174,-0.26549 c -0.407645,-0.14602 -1.085783,-0.38928 -1.506974,-0.54057 l -0.7658,-0.27507 -0.270306,0.32613 c -0.148668,0.17937 -0.539226,0.60372 -0.867907,0.943 -0.32868,0.33927 -0.597601,0.64753 -0.597601,0.685 0,0.0375 0.321062,0.66353 0.713471,1.39123 0.392408,0.7277 0.714044,1.35462 0.714747,1.39316 0.0011,0.0582 -1.01613,0.53251 -3.516337,1.63968 l -0.352305,0.15601 -0.763795,-1.4264 -0.763796,-1.42639 h -1.301406 -1.301406 l -0.543588,1.53124 c -0.298974,0.84217 -0.558904,1.52892 -0.577623,1.52609 -0.01872,-0.003 -0.922364,-0.33777 -2.008099,-0.74433 z m 5.479727,-6.58074 c 0.771013,-0.22023 1.340744,-0.54947 1.946464,-1.12484 1.509854,-1.43422 1.791603,-3.17825 0.832906,-5.15573 -0.302958,-0.62491 -0.421245,-0.78778 -0.966662,-1.33105 -0.521008,-0.51896 -0.725995,-0.67054 -1.268139,-0.93773 -1.501045,-0.73978 -3.051783,-0.80345 -4.314137,-0.17713 -1.865949,0.9258 -2.875082,3.01248 -2.466562,5.10036 0.331168,1.69255 1.606032,3.12022 3.219124,3.60498 1.004465,0.30186 2.009542,0.3089 3.017006,0.0211 z m 10.959452,-12.37565 v -0.98703 h -0.159359 c -0.287866,0 -0.811581,-0.19403 -1.118324,-0.41431 l -0.301306,-0.21638 -0.640161,0.6375 -0.640161,0.6375 -0.850727,-0.84869 c -0.4679,-0.46678 -0.850728,-0.86638 -0.850728,-0.88802 0,-0.0216 0.275689,-0.26522 0.612641,-0.54131 0.336952,-0.27609 0.61264,-0.52006 0.61264,-0.54216 0,-0.0221 -0.05254,-0.11521 -0.116765,-0.20689 -0.06422,-0.0917 -0.196609,-0.41249 -0.294195,-0.71288 l -0.177431,-0.54617 -0.880031,-0.034 -0.880032,-0.034 v -1.29335 -1.29335 l 0.878246,-0.034 0.878246,-0.034 0.09357,-0.27076 c 0.05146,-0.14892 0.189986,-0.47995 0.307829,-0.73561 l 0.214257,-0.46484 -0.624488,-0.62709 c -0.343468,-0.34491 -0.624488,-0.65761 -0.624488,-0.69491 0,-0.0373 0.380958,-0.44786 0.846572,-0.91236 l 0.846572,-0.84453 0.804153,0.71382 c 0.442285,0.3926 0.84274,0.73681 0.8899,0.7649 0.04908,0.0292 0.159586,-0.007 0.258406,-0.0847 0.09496,-0.0747 0.385672,-0.21721 0.646019,-0.31669 l 0.473355,-0.18088 v -0.98108 -0.98108 h 1.19125 1.19124 v 0.86956 0.86956 l 0.65752,0.32662 0.65752,0.32662 0.65395,-0.65149 0.65395,-0.6515 0.87085,0.87278 0.87084,0.87278 -0.63053,0.53958 c -0.3468,0.29677 -0.69091,0.5886 -0.7647,0.64853 -0.13332,0.10826 -0.13328,0.11019 0.007,0.30695 0.0776,0.1089 0.21539,0.44278 0.30632,0.74194 l 0.16533,0.54393 0.99891,0.0188 0.99892,0.0188 v 1.32557 1.32556 h -0.97852 -0.97833 l -0.0424,0.25527 c -0.0233,0.1404 -0.1204,0.42191 -0.21577,0.62557 l -0.1734,0.37031 0.6552,0.65767 0.65521,0.65767 -0.90761,0.81426 c -0.49919,0.44784 -0.94916,0.83911 -0.99993,0.86948 -0.0646,0.0386 -0.28237,-0.13405 -0.7253,-0.57514 l -0.63299,-0.63036 -0.20338,0.14482 c -0.11187,0.0797 -0.39812,0.2142 -0.63613,0.29898 l -0.43273,0.15416 -0.0188,1.00361 -0.0188,1.00361 h -1.18942 -1.18943 z m 1.73853,-3.2703 c 0.83591,-0.21631 1.47729,-0.75633 1.88729,-1.58902 0.20382,-0.41397 0.2202,-0.49797 0.2202,-1.12944 0,-0.62564 -0.018,-0.72016 -0.2168,-1.13988 -0.46478,-0.98111 -1.36931,-1.61265 -2.39478,-1.67201 -0.67447,-0.0391 -1.14469,0.0919 -1.720892,0.47914 -1.507734,1.01336 -1.704461,3.06558 -0.414085,4.31968 0.745769,0.72481 1.672437,0.98167 2.639067,0.73153 z"
           id="path883" />
        <path
           style="opacity:1;fill:#ffffff;fill-rule:evenodd;stroke:#000000;stroke-width:8.0489;stroke-linecap:round;stroke-linejoin:round;stroke-miterlimit:4;stroke-dasharray:none;stroke-dashoffset:8.32854;paint-order:stroke fill markers;stop-color:#000000"
           id="path885"
           sodipodi:type="arc"
           sodipodi:cx="87.628204"
           sodipodi:cy="161.67068"
           sodipodi:rx="5.0963111"
           sodipodi:ry="5.0963111"
           sodipodi:start="0"
           sodipodi:end="6.2813702"
           sodipodi:open="true"
           sodipodi:arc-type="arc"
           d="m 92.724515,161.67068 a 5.0963111,5.0963111 0 0 1 -5.093998,5.09632 5.0963111,5.0963111 0 0 1 -5.098622,-5.09169 5.0963111,5.0963111 0 0 1 5.089372,-5.10093 5.0963111,5.0963111 0 0 1 5.10324,5.08705" />
        <path
           d="m 104.18871,147.66643 a 2.8935544,2.8935544 0 0 1 -2.89224,2.89355 2.8935544,2.8935544 0 0 1 -2.894865,-2.89093 2.8935544,2.8935544 0 0 1 2.889615,-2.89617 2.8935544,2.8935544 0 0 1 2.89749,2.8883"
           sodipodi:arc-type="arc"
           sodipodi:open="true"
           sodipodi:end="6.2813702"
           sodipodi:start="0"
           sodipodi:ry="2.8935544"
           sodipodi:rx="2.8935544"
           sodipodi:cy="147.66643"
           sodipodi:cx="101.29516"
           sodipodi:type="arc"
           id="path885-8"
           style="opacity:1;fill:#ffffff;fill-rule:evenodd;stroke:#000000;stroke-width:4.56996;stroke-linecap:round;stroke-linejoin:round;stroke-miterlimit:4;stroke-dasharray:none;stroke-dashoffset:8.32854;paint-order:stroke fill markers;stop-color:#000000" />
      </g>
    </g>
    <g
       inkscape:export-ydpi="400"
       inkscape:export-xdpi="400"
       id="g932">
      <path
         transform="matrix(0.36260996,0.66024753,-0.66024753,0.36260996,177.37342,-122.02168)"
         inkscape:transform-center-y="2.3453546"
         inkscape:transform-center-x="-3.8991828"
         d="m 183.09037,176.24701 -0.0849,0.14673 -22.11645,-12.08624 -0.0846,-0.14686 21.52521,-13.11029 0.16951,1.3e-4 z"
         inkscape:randomized="0"
         inkscape:rounded="0"
         inkscape:flatsided="false"
         sodipodi:arg2="1.0272199"
         sodipodi:arg1="1.0170146"
         sodipodi:r2="14.634857"
         sodipodi:r1="14.553924"
         sodipodi:cy="163.86829"
         sodipodi:cx="175.43636"
         sodipodi:sides="3"
         id="path907"
         style="opacity:1;fill:#000000;fill-rule:evenodd;stroke:#000000;stroke-width:5.76163;stroke-linecap:round;stroke-linejoin:round;stroke-miterlimit:4;stroke-dasharray:none;stroke-dashoffset:8.32854;paint-order:stroke fill markers;stop-color:#000000"
         sodipodi:type="star" />
    </g>
    <g
       inkscape:export-ydpi="400"
       inkscape:export-xdpi="400"
       id="g935">
      <rect
         ry="0"
         rx="0.24254347"
         y="44.575008"
         x="162.46356"
         height="15.256697"
         width="15.256697"
         id="rect913"
         style="opacity:1;fill:#000000;fill-rule:evenodd;stroke:#000000;stroke-width:4.30322;stroke-linecap:round;stroke-linejoin:round;stroke-miterlimit:4;stroke-dasharray:none;stroke-dashoffset:8.32854;paint-order:stroke fill markers;stop-color:#000000" />
    </g>
  </g>
</svg>
